# xmcd CD database file
# Copyright (C) 1993-1996 Ti Kan
#
# Track frame offsets:
#	150
#	12542
#	23367
#	35510
#	48010
#	60752
#	72642
#	85600
#	99577
#	109260
#	120290
#	131632
#	146135
#	154612
#	166067
#	179577
#	187460
#	200197
#	213835
#	226970
#
# Disc length: 3189 seconds
#
# Revision: 1
# Processed by: cddbd v1.4b41PL1 Copyright (c) Steve Scherf et al.
# Submitted via: CDValet v3.01 - Copyright (c) 1997 Greg Leichner
#
DISCID=120c7314
DTITLE=Various Artist - Rolling Stone Classics 2
DYEAR=1900
DGENRE=
TTITLE0=Poison Ivy: The Coasters
TTITLE1=Not Fade Away: Buddy Holly
TTITLE2=Route 66: Bobby Troup
TTITLE3=Honest I Do: Jimmy Reed
TTITLE4=Carol: Chuck Berry
TTITLE5=If You Need Me: Wilson Pickett
TTITLE6=Everybody Needs Somebody to Love: Solomon Burke
TTITLE7=I Can't be Satisfied (I be's Troubled): Muddy Waters
TTITLE8=Oh Baby (We Got a Good Thing Goin'): Barbara Lynn
TTITLE9=Mercy Mercy: Don Covay
TTITLE10=Good Times: Sam Cooke
TTITLE11=Cry to Me: Betty Harris
TTITLE12=She Said Yeah: Larry Williams
TTITLE13=Shake Your Hips: Slim Harpo
TTITLE14=Don't You Lie to Me: Tampa Red
TTITLE15=Twenty Flight Rock: Eddie Cochran
TTITLE16=Ruler of My Heart: Irma Thomas
TTITLE17=Fannie Mae: Buster Brown
TTITLE18=Worried Life Blues: Big Maceo
TTITLE19=Key to the Highway: Jazz Gillum
EXTD=
EXTT0=
EXTT1=
EXTT2=
EXTT3=
EXTT4=
EXTT5=
EXTT6=
EXTT7=
EXTT8=
EXTT9=
EXTT10=
EXTT11=
EXTT12=
EXTT13=
EXTT14=
EXTT15=
EXTT16=
EXTT17=
EXTT18=
EXTT19=
PLAYORDER=
